# Blender v2.79 (sub 0) OBJ File: 'Letter.blend'
# www.blender.org
mtllib J.mtl
o Text
v -0.331368 0.766010 -0.053586
v -0.337989 0.707354 -0.053586
v -0.349305 0.652290 -0.053586
v -0.365541 0.601255 -0.053586
v -0.386918 0.554680 -0.053586
v -0.413659 0.512981 -0.053586
v -0.446000 0.476559 -0.053586
v -0.484195 0.445805 -0.053586
v -0.528526 0.421120 -0.053586
v -0.579285 0.402927 -0.053586
v -0.636760 0.391671 -0.053586
v -0.701316 0.387810 -0.053586
v -0.706995 0.387849 -0.053586
v -0.712487 0.387965 -0.053586
v -0.717730 0.388149 -0.053586
v -0.722767 0.388396 -0.053586
v -0.727642 0.388697 -0.053586
v -0.732397 0.389047 -0.053586
v -0.737076 0.389439 -0.053586
v -0.741722 0.389865 -0.053586
v -0.746377 0.390321 -0.053586
v -0.751083 0.390798 -0.053586
v -0.755882 0.391290 -0.053586
v -0.757861 0.391490 -0.053586
v -0.792342 0.565809 -0.053586
v -0.747121 0.565809 -0.053586
v -0.698663 0.567992 -0.053586
v -0.657320 0.574592 -0.053586
v -0.622569 0.585677 -0.053586
v -0.593872 0.601323 -0.053586
v -0.570757 0.621549 -0.053586
v -0.552746 0.646271 -0.053586
v -0.539269 0.675369 -0.053586
v -0.529675 0.708773 -0.053586
v -0.523303 0.746483 -0.053586
v -0.519514 0.788532 -0.053586
v -0.517686 0.834959 -0.053586
v -0.517211 0.885790 -0.053586
v -0.517211 2.203809 -0.053586
v -0.329211 2.203809 -0.053586
v -0.329211 0.827879 -0.053586
v -0.331368 0.766010 -0.445586
v -0.337989 0.707354 -0.445586
v -0.349305 0.652290 -0.445586
v -0.365541 0.601255 -0.445586
v -0.386918 0.554680 -0.445586
v -0.413659 0.512981 -0.445586
v -0.446000 0.476559 -0.445586
v -0.484195 0.445805 -0.445586
v -0.528526 0.421120 -0.445586
v -0.579285 0.402927 -0.445586
v -0.636760 0.391671 -0.445586
v -0.701316 0.387810 -0.445586
v -0.706995 0.387849 -0.445586
v -0.712487 0.387965 -0.445586
v -0.717730 0.388149 -0.445586
v -0.722767 0.388396 -0.445586
v -0.727642 0.388697 -0.445586
v -0.732397 0.389047 -0.445586
v -0.737076 0.389439 -0.445586
v -0.741722 0.389865 -0.445586
v -0.746377 0.390321 -0.445586
v -0.751083 0.390798 -0.445586
v -0.755882 0.391290 -0.445586
v -0.757861 0.391490 -0.445586
v -0.792342 0.565809 -0.445586
v -0.747121 0.565809 -0.445586
v -0.698663 0.567992 -0.445586
v -0.657320 0.574592 -0.445586
v -0.622569 0.585677 -0.445586
v -0.593872 0.601323 -0.445586
v -0.570757 0.621549 -0.445586
v -0.552746 0.646271 -0.445586
v -0.539269 0.675369 -0.445586
v -0.529675 0.708773 -0.445586
v -0.523303 0.746483 -0.445586
v -0.519514 0.788532 -0.445586
v -0.517686 0.834959 -0.445586
v -0.517211 0.885790 -0.445586
v -0.517211 2.203809 -0.445586
v -0.329211 2.203809 -0.445586
v -0.329211 0.827879 -0.445586
v -0.331368 0.766010 -0.445586
v -0.289451 0.762918 -0.403586
v -0.337989 0.707354 -0.445586
v -0.296467 0.700758 -0.403586
v -0.349305 0.652290 -0.445586
v -0.308611 0.641667 -0.403586
v -0.365541 0.601255 -0.445586
v -0.326297 0.586072 -0.403586
v -0.386918 0.554680 -0.445586
v -0.349974 0.534485 -0.403586
v -0.413659 0.512981 -0.445586
v -0.380075 0.487548 -0.403586
v -0.446000 0.476559 -0.445586
v -0.416924 0.446047 -0.403586
v -0.484195 0.445805 -0.445586
v -0.460639 0.410849 -0.403586
v -0.528526 0.421120 -0.445586
v -0.511107 0.382747 -0.403586
v -0.579285 0.402927 -0.445586
v -0.568101 0.362319 -0.403586
v -0.636760 0.391671 -0.445586
v -0.631446 0.349914 -0.403586
v -0.701316 0.387810 -0.445586
v -0.700207 0.345801 -0.403586
v -0.706995 0.387849 -0.445586
v -0.707583 0.345852 -0.403586
v -0.712487 0.387965 -0.445586
v -0.713668 0.345981 -0.403586
v -0.717730 0.388149 -0.445586
v -0.719494 0.346186 -0.403586
v -0.722767 0.388396 -0.445586
v -0.725089 0.346459 -0.403586
v -0.727642 0.388697 -0.445586
v -0.730479 0.346792 -0.403586
v -0.732397 0.389047 -0.445586
v -0.735690 0.347176 -0.403586
v -0.737076 0.389439 -0.445586
v -0.740749 0.347599 -0.403586
v -0.741722 0.389865 -0.445586
v -0.745688 0.348053 -0.403586
v -0.746377 0.390321 -0.445586
v -0.750539 0.348527 -0.403586
v -0.751083 0.390798 -0.445586
v -0.755342 0.349014 -0.403586
v -0.755882 0.391290 -0.445586
v -0.760140 0.349506 -0.403586
v -0.757861 0.391490 -0.445586
v -0.793030 0.352838 -0.403586
v -0.792342 0.565809 -0.445586
v -0.843464 0.607809 -0.403586
v -0.747121 0.565809 -0.445586
v -0.748066 0.607809 -0.403586
v -0.698663 0.567992 -0.445586
v -0.702932 0.609843 -0.403586
v -0.657320 0.574592 -0.445586
v -0.667067 0.615568 -0.403586
v -0.622569 0.585677 -0.445586
v -0.639153 0.624472 -0.403586
v -0.593872 0.601323 -0.445586
v -0.618043 0.635981 -0.403586
v -0.570757 0.621549 -0.445586
v -0.601943 0.650069 -0.403586
v -0.552746 0.646271 -0.445586
v -0.589123 0.667668 -0.403586
v -0.539269 0.675369 -0.445586
v -0.578742 0.690079 -0.403586
v -0.529675 0.708773 -0.445586
v -0.570694 0.718098 -0.403586
v -0.523303 0.746483 -0.445586
v -0.564988 0.751874 -0.403586
v -0.519514 0.788532 -0.445586
v -0.561440 0.791245 -0.403586
v -0.517686 0.834959 -0.445586
v -0.559678 0.835982 -0.403586
v -0.517211 0.885790 -0.445586
v -0.559211 0.885987 -0.403586
v -0.517211 2.203809 -0.445586
v -0.559211 2.245809 -0.403586
v -0.329211 2.203809 -0.445586
v -0.287211 2.245809 -0.403586
v -0.329211 0.827879 -0.445586
v -0.287211 0.827147 -0.403586
v -0.289451 0.762918 -0.403586
v -0.289451 0.762918 -0.095586
v -0.296467 0.700758 -0.403586
v -0.296467 0.700758 -0.095586
v -0.308611 0.641667 -0.403586
v -0.308611 0.641667 -0.095586
v -0.326297 0.586072 -0.403586
v -0.326297 0.586072 -0.095586
v -0.349974 0.534485 -0.403586
v -0.349974 0.534485 -0.095586
v -0.380075 0.487548 -0.403586
v -0.380075 0.487548 -0.095586
v -0.416924 0.446047 -0.403586
v -0.416924 0.446047 -0.095586
v -0.460639 0.410849 -0.403586
v -0.460639 0.410849 -0.095586
v -0.511107 0.382747 -0.403586
v -0.511107 0.382747 -0.095586
v -0.568101 0.362319 -0.403586
v -0.568101 0.362319 -0.095586
v -0.631446 0.349914 -0.403586
v -0.631446 0.349914 -0.095586
v -0.700207 0.345801 -0.403586
v -0.700207 0.345801 -0.095586
v -0.707583 0.345852 -0.403586
v -0.707583 0.345852 -0.095586
v -0.713668 0.345981 -0.403586
v -0.713668 0.345981 -0.095586
v -0.719494 0.346186 -0.403586
v -0.719494 0.346186 -0.095586
v -0.725089 0.346459 -0.403586
v -0.725089 0.346459 -0.095586
v -0.730479 0.346792 -0.403586
v -0.730479 0.346792 -0.095586
v -0.735690 0.347176 -0.403586
v -0.735690 0.347176 -0.095586
v -0.740749 0.347599 -0.403586
v -0.740749 0.347599 -0.095586
v -0.745688 0.348053 -0.403586
v -0.745688 0.348053 -0.095586
v -0.750539 0.348527 -0.403586
v -0.750539 0.348527 -0.095586
v -0.755342 0.349014 -0.403586
v -0.755342 0.349014 -0.095586
v -0.760140 0.349506 -0.403586
v -0.760140 0.349506 -0.095586
v -0.793030 0.352838 -0.403586
v -0.793030 0.352838 -0.095586
v -0.843464 0.607809 -0.403586
v -0.843464 0.607809 -0.095586
v -0.748066 0.607809 -0.403586
v -0.748066 0.607809 -0.095586
v -0.702932 0.609843 -0.403586
v -0.702932 0.609843 -0.095586
v -0.667067 0.615568 -0.403586
v -0.667067 0.615568 -0.095586
v -0.639153 0.624472 -0.403586
v -0.639153 0.624472 -0.095586
v -0.618043 0.635981 -0.403586
v -0.618043 0.635981 -0.095586
v -0.601943 0.650069 -0.403586
v -0.601943 0.650069 -0.095586
v -0.589123 0.667668 -0.403586
v -0.589123 0.667668 -0.095586
v -0.578742 0.690079 -0.403586
v -0.578742 0.690079 -0.095586
v -0.570694 0.718098 -0.403586
v -0.570694 0.718098 -0.095586
v -0.564988 0.751874 -0.403586
v -0.564988 0.751874 -0.095586
v -0.561440 0.791245 -0.403586
v -0.561440 0.791245 -0.095586
v -0.559678 0.835982 -0.403586
v -0.559678 0.835982 -0.095586
v -0.559211 0.885987 -0.403586
v -0.559211 0.885987 -0.095586
v -0.559211 2.245809 -0.403586
v -0.559211 2.245809 -0.095586
v -0.287211 2.245809 -0.403586
v -0.287211 2.245809 -0.095586
v -0.287211 0.827147 -0.403586
v -0.287211 0.827147 -0.095586
v -0.289451 0.762918 -0.095586
v -0.331368 0.766010 -0.053586
v -0.296467 0.700758 -0.095586
v -0.337989 0.707354 -0.053586
v -0.308611 0.641667 -0.095586
v -0.349305 0.652290 -0.053586
v -0.326297 0.586072 -0.095586
v -0.365541 0.601255 -0.053586
v -0.349974 0.534485 -0.095586
v -0.386918 0.554680 -0.053586
v -0.380075 0.487548 -0.095586
v -0.413659 0.512981 -0.053586
v -0.416924 0.446047 -0.095586
v -0.446000 0.476559 -0.053586
v -0.460639 0.410849 -0.095586
v -0.484195 0.445805 -0.053586
v -0.511107 0.382747 -0.095586
v -0.528526 0.421120 -0.053586
v -0.568101 0.362319 -0.095586
v -0.579285 0.402927 -0.053586
v -0.631446 0.349914 -0.095586
v -0.636760 0.391671 -0.053586
v -0.700207 0.345801 -0.095586
v -0.701316 0.387810 -0.053586
v -0.707583 0.345852 -0.095586
v -0.706995 0.387849 -0.053586
v -0.713668 0.345981 -0.095586
v -0.712487 0.387965 -0.053586
v -0.719494 0.346186 -0.095586
v -0.717730 0.388149 -0.053586
v -0.725089 0.346459 -0.095586
v -0.722767 0.388396 -0.053586
v -0.730479 0.346792 -0.095586
v -0.727642 0.388697 -0.053586
v -0.735690 0.347176 -0.095586
v -0.732397 0.389047 -0.053586
v -0.740749 0.347599 -0.095586
v -0.737076 0.389439 -0.053586
v -0.745688 0.348053 -0.095586
v -0.741722 0.389865 -0.053586
v -0.750539 0.348527 -0.095586
v -0.746377 0.390321 -0.053586
v -0.755342 0.349014 -0.095586
v -0.751083 0.390798 -0.053586
v -0.760140 0.349506 -0.095586
v -0.755882 0.391290 -0.053586
v -0.793030 0.352838 -0.095586
v -0.757861 0.391490 -0.053586
v -0.843464 0.607809 -0.095586
v -0.792342 0.565809 -0.053586
v -0.748066 0.607809 -0.095586
v -0.747121 0.565809 -0.053586
v -0.702932 0.609843 -0.095586
v -0.698663 0.567992 -0.053586
v -0.667067 0.615568 -0.095586
v -0.657320 0.574592 -0.053586
v -0.639153 0.624472 -0.095586
v -0.622569 0.585677 -0.053586
v -0.618043 0.635981 -0.095586
v -0.593872 0.601323 -0.053586
v -0.601943 0.650069 -0.095586
v -0.570757 0.621549 -0.053586
v -0.589123 0.667668 -0.095586
v -0.552746 0.646271 -0.053586
v -0.578742 0.690079 -0.095586
v -0.539269 0.675369 -0.053586
v -0.570694 0.718098 -0.095586
v -0.529675 0.708773 -0.053586
v -0.564988 0.751874 -0.095586
v -0.523303 0.746483 -0.053586
v -0.561440 0.791245 -0.095586
v -0.519514 0.788532 -0.053586
v -0.559678 0.835982 -0.095586
v -0.517686 0.834959 -0.053586
v -0.559211 0.885987 -0.095586
v -0.517211 0.885790 -0.053586
v -0.559211 2.245809 -0.095586
v -0.517211 2.203809 -0.053586
v -0.287211 2.245809 -0.095586
v -0.329211 2.203809 -0.053586
v -0.287211 0.827147 -0.095586
v -0.329211 0.827879 -0.053586
vn 0.0000 -0.0000 1.0000
vn 0.0000 0.0000 -1.0000
vn 0.7049 -0.0520 -0.7074
vn 0.6980 -0.1109 -0.7074
vn 0.6837 -0.1785 -0.7076
vn 0.6588 -0.2549 -0.7078
vn 0.6197 -0.3387 -0.7080
vn 0.5628 -0.4262 -0.7082
vn 0.4869 -0.5110 -0.7083
vn 0.3944 -0.5853 -0.7084
vn 0.2918 -0.6428 -0.7083
vn 0.1875 -0.6807 -0.7081
vn 0.0891 -0.7006 -0.7079
vn 0.0186 -0.7067 -0.7073
vn -0.0099 -0.7070 -0.7071
vn -0.0199 -0.7068 -0.7071
vn -0.0297 -0.7065 -0.7071
vn -0.0391 -0.7060 -0.7071
vn -0.0477 -0.7055 -0.7071
vn -0.0554 -0.7049 -0.7071
vn -0.0618 -0.7044 -0.7071
vn -0.0667 -0.7039 -0.7071
vn -0.0701 -0.7036 -0.7071
vn -0.0717 -0.7035 -0.7071
vn -0.4216 -0.4634 -0.7794
vn -0.4141 0.3402 -0.8442
vn -0.0159 0.7068 -0.7072
vn -0.0717 0.7029 -0.7077
vn -0.1634 0.6869 -0.7081
vn -0.2773 0.6487 -0.7087
vn -0.4033 0.5782 -0.7092
vn -0.5202 0.4757 -0.7093
vn -0.6080 0.3576 -0.7088
vn -0.6616 0.2466 -0.7082
vn -0.6890 0.1566 -0.7077
vn -0.7010 0.0906 -0.7074
vn -0.7055 0.0456 -0.7072
vn -0.7068 0.0172 -0.7071
vn -0.7071 0.0033 -0.7071
vn -0.4082 0.4082 -0.8165
vn 0.4082 0.4082 -0.8165
vn 0.7069 -0.0123 -0.7071
vn 0.9973 -0.0735 0.0000
vn 0.9876 -0.1569 0.0000
vn 0.9676 -0.2526 0.0000
vn 0.9326 -0.3608 0.0000
vn 0.8774 -0.4796 0.0000
vn 0.7972 -0.6037 0.0000
vn 0.6898 -0.7239 0.0000
vn 0.5588 -0.8292 0.0000
vn 0.4133 -0.9106 0.0000
vn 0.2655 -0.9641 0.0000
vn 0.1262 -0.9920 0.0000
vn 0.0264 -0.9996 0.0000
vn -0.0140 -0.9999 0.0000
vn -0.0281 -0.9996 0.0000
vn -0.0420 -0.9991 0.0000
vn -0.0553 -0.9984 0.0000
vn -0.0675 -0.9977 0.0000
vn -0.0784 -0.9969 0.0000
vn -0.0874 -0.9962 0.0000
vn -0.0944 -0.9955 0.0000
vn -0.0991 -0.9951 0.0000
vn -0.1014 -0.9948 0.0000
vn -0.6730 -0.7396 0.0000
vn -0.7727 0.6348 0.0000
vn -0.0225 0.9997 0.0000
vn -0.1015 0.9948 0.0000
vn -0.2314 0.9728 0.0000
vn -0.3930 0.9195 0.0000
vn -0.5720 0.8202 0.0000
vn -0.7379 0.6749 0.0000
vn -0.8619 0.5070 0.0000
vn -0.9370 0.3492 0.0000
vn -0.9751 0.2217 0.0000
vn -0.9917 0.1282 0.0000
vn -0.9979 0.0645 0.0000
vn -0.9997 0.0243 0.0000
vn -1.0000 0.0047 0.0000
vn -0.7071 0.7071 0.0000
vn 0.7071 0.7071 0.0000
vn 0.9998 -0.0174 0.0000
vn 0.7049 -0.0520 0.7074
vn 0.6980 -0.1109 0.7074
vn 0.6837 -0.1785 0.7076
vn 0.6588 -0.2549 0.7078
vn 0.6197 -0.3387 0.7080
vn 0.5628 -0.4262 0.7082
vn 0.4869 -0.5110 0.7083
vn 0.3944 -0.5853 0.7084
vn 0.2918 -0.6428 0.7083
vn 0.1875 -0.6807 0.7081
vn 0.0891 -0.7006 0.7079
vn 0.0186 -0.7067 0.7073
vn -0.0099 -0.7070 0.7071
vn -0.0199 -0.7068 0.7071
vn -0.0297 -0.7065 0.7071
vn -0.0391 -0.7060 0.7071
vn -0.0477 -0.7055 0.7071
vn -0.0554 -0.7049 0.7071
vn -0.0618 -0.7044 0.7071
vn -0.0667 -0.7039 0.7071
vn -0.0701 -0.7036 0.7071
vn -0.0717 -0.7035 0.7071
vn -0.4216 -0.4634 0.7794
vn -0.4141 0.3402 0.8442
vn -0.0159 0.7068 0.7072
vn -0.0717 0.7029 0.7077
vn -0.1634 0.6869 0.7081
vn -0.2773 0.6487 0.7087
vn -0.4033 0.5782 0.7092
vn -0.5202 0.4757 0.7093
vn -0.6080 0.3576 0.7088
vn -0.6616 0.2466 0.7082
vn -0.6890 0.1566 0.7077
vn -0.7010 0.0906 0.7074
vn -0.7055 0.0456 0.7072
vn -0.7068 0.0172 0.7071
vn -0.7071 0.0033 0.7071
vn -0.4082 0.4082 0.8165
vn 0.4082 0.4082 0.8165
vn 0.7069 -0.0123 0.7071
usemtl None
s off
f 38//1 40//1 39//1
f 38//1 41//1 40//1
f 37//1 41//1 38//1
f 36//1 41//1 37//1
f 36//1 1//1 41//1
f 35//1 1//1 36//1
f 35//1 2//1 1//1
f 34//1 2//1 35//1
f 33//1 2//1 34//1
f 33//1 3//1 2//1
f 32//1 3//1 33//1
f 32//1 4//1 3//1
f 31//1 4//1 32//1
f 30//1 4//1 31//1
f 29//1 4//1 30//1
f 29//1 5//1 4//1
f 28//1 5//1 29//1
f 27//1 5//1 28//1
f 26//1 5//1 27//1
f 24//1 26//1 25//1
f 24//1 5//1 26//1
f 24//1 6//1 5//1
f 24//1 7//1 6//1
f 24//1 8//1 7//1
f 24//1 9//1 8//1
f 24//1 10//1 9//1
f 24//1 11//1 10//1
f 24//1 12//1 11//1
f 23//1 12//1 24//1
f 22//1 12//1 23//1
f 21//1 12//1 22//1
f 20//1 12//1 21//1
f 19//1 12//1 20//1
f 18//1 12//1 19//1
f 17//1 12//1 18//1
f 16//1 12//1 17//1
f 15//1 12//1 16//1
f 14//1 12//1 15//1
f 13//1 12//1 14//1
f 81//2 79//2 80//2
f 82//2 79//2 81//2
f 82//2 78//2 79//2
f 82//2 77//2 78//2
f 42//2 77//2 82//2
f 42//2 76//2 77//2
f 43//2 76//2 42//2
f 43//2 75//2 76//2
f 43//2 74//2 75//2
f 44//2 74//2 43//2
f 44//2 73//2 74//2
f 45//2 73//2 44//2
f 45//2 72//2 73//2
f 45//2 71//2 72//2
f 45//2 70//2 71//2
f 46//2 70//2 45//2
f 46//2 69//2 70//2
f 46//2 68//2 69//2
f 46//2 67//2 68//2
f 67//2 65//2 66//2
f 46//2 65//2 67//2
f 47//2 65//2 46//2
f 48//2 65//2 47//2
f 49//2 65//2 48//2
f 50//2 65//2 49//2
f 51//2 65//2 50//2
f 52//2 65//2 51//2
f 53//2 65//2 52//2
f 53//2 64//2 65//2
f 53//2 63//2 64//2
f 53//2 62//2 63//2
f 53//2 61//2 62//2
f 53//2 60//2 61//2
f 53//2 59//2 60//2
f 53//2 58//2 59//2
f 53//2 57//2 58//2
f 53//2 56//2 57//2
f 53//2 55//2 56//2
f 53//2 54//2 55//2
s 1
f 84//3 86//4 85//4 83//3
f 86//4 88//5 87//5 85//4
f 88//5 90//6 89//6 87//5
f 90//6 92//7 91//7 89//6
f 92//7 94//8 93//8 91//7
f 94//8 96//9 95//9 93//8
f 96//9 98//10 97//10 95//9
f 98//10 100//11 99//11 97//10
f 100//11 102//12 101//12 99//11
f 102//12 104//13 103//13 101//12
f 104//13 106//14 105//14 103//13
f 106//14 108//15 107//15 105//14
f 108//15 110//16 109//16 107//15
f 110//16 112//17 111//17 109//16
f 112//17 114//18 113//18 111//17
f 114//18 116//19 115//19 113//18
f 116//19 118//20 117//20 115//19
f 118//20 120//21 119//21 117//20
f 120//21 122//22 121//22 119//21
f 122//22 124//23 123//23 121//22
f 124//23 126//24 125//24 123//23
f 126//24 128//24 127//24 125//24
f 128//24 130//25 129//25 127//24
f 130//25 132//26 131//26 129//25
f 132//26 134//27 133//27 131//26
f 134//27 136//28 135//28 133//27
f 136//28 138//29 137//29 135//28
f 138//29 140//30 139//30 137//29
f 140//30 142//31 141//31 139//30
f 142//31 144//32 143//32 141//31
f 144//32 146//33 145//33 143//32
f 146//33 148//34 147//34 145//33
f 148//34 150//35 149//35 147//34
f 150//35 152//36 151//36 149//35
f 152//36 154//37 153//37 151//36
f 154//37 156//38 155//38 153//37
f 156//38 158//39 157//39 155//38
f 158//39 160//40 159//40 157//39
f 160//40 162//41 161//41 159//40
f 162//41 164//42 163//42 161//41
f 164//42 84//3 83//3 163//42
f 166//43 168//44 167//44 165//43
f 168//44 170//45 169//45 167//44
f 170//45 172//46 171//46 169//45
f 172//46 174//47 173//47 171//46
f 174//47 176//48 175//48 173//47
f 176//48 178//49 177//49 175//48
f 178//49 180//50 179//50 177//49
f 180//50 182//51 181//51 179//50
f 182//51 184//52 183//52 181//51
f 184//52 186//53 185//53 183//52
f 186//53 188//54 187//54 185//53
f 188//54 190//55 189//55 187//54
f 190//55 192//56 191//56 189//55
f 192//56 194//57 193//57 191//56
f 194//57 196//58 195//58 193//57
f 196//58 198//59 197//59 195//58
f 198//59 200//60 199//60 197//59
f 200//60 202//61 201//61 199//60
f 202//61 204//62 203//62 201//61
f 204//62 206//63 205//63 203//62
f 206//63 208//64 207//64 205//63
f 208//64 210//64 209//64 207//64
f 210//64 212//65 211//65 209//64
f 212//65 214//66 213//66 211//65
f 214//66 216//67 215//67 213//66
f 216//67 218//68 217//68 215//67
f 218//68 220//69 219//69 217//68
f 220//69 222//70 221//70 219//69
f 222//70 224//71 223//71 221//70
f 224//71 226//72 225//72 223//71
f 226//72 228//73 227//73 225//72
f 228//73 230//74 229//74 227//73
f 230//74 232//75 231//75 229//74
f 232//75 234//76 233//76 231//75
f 234//76 236//77 235//77 233//76
f 236//77 238//78 237//78 235//77
f 238//78 240//79 239//79 237//78
f 240//79 242//80 241//80 239//79
f 242//80 244//81 243//81 241//80
f 244//81 246//82 245//82 243//81
f 246//82 166//43 165//43 245//82
f 248//83 250//84 249//84 247//83
f 250//84 252//85 251//85 249//84
f 252//85 254//86 253//86 251//85
f 254//86 256//87 255//87 253//86
f 256//87 258//88 257//88 255//87
f 258//88 260//89 259//89 257//88
f 260//89 262//90 261//90 259//89
f 262//90 264//91 263//91 261//90
f 264//91 266//92 265//92 263//91
f 266//92 268//93 267//93 265//92
f 268//93 270//94 269//94 267//93
f 270//94 272//95 271//95 269//94
f 272//95 274//96 273//96 271//95
f 274//96 276//97 275//97 273//96
f 276//97 278//98 277//98 275//97
f 278//98 280//99 279//99 277//98
f 280//99 282//100 281//100 279//99
f 282//100 284//101 283//101 281//100
f 284//101 286//102 285//102 283//101
f 286//102 288//103 287//103 285//102
f 288//103 290//104 289//104 287//103
f 290//104 292//104 291//104 289//104
f 292//104 294//105 293//105 291//104
f 294//105 296//106 295//106 293//105
f 296//106 298//107 297//107 295//106
f 298//107 300//108 299//108 297//107
f 300//108 302//109 301//109 299//108
f 302//109 304//110 303//110 301//109
f 304//110 306//111 305//111 303//110
f 306//111 308//112 307//112 305//111
f 308//112 310//113 309//113 307//112
f 310//113 312//114 311//114 309//113
f 312//114 314//115 313//115 311//114
f 314//115 316//116 315//116 313//115
f 316//116 318//117 317//117 315//116
f 318//117 320//118 319//118 317//117
f 320//118 322//119 321//119 319//118
f 322//119 324//120 323//120 321//119
f 324//120 326//121 325//121 323//120
f 326//121 328//122 327//122 325//121
f 328//122 248//83 247//83 327//122
