# Blender v2.79 (sub 0) OBJ File: 'Letter.blend'
# www.blender.org
mtllib T.mtl
o Text
v -0.329211 2.035809 -0.053586
v -0.329211 0.847809 -0.053586
v -0.517211 0.847809 -0.053586
v -0.517211 2.035809 -0.053586
v -0.989211 2.035809 -0.053586
v -0.989211 2.203809 -0.053586
v 0.142789 2.203809 -0.053586
v 0.142789 2.035809 -0.053586
v -0.329211 2.035809 -0.445586
v -0.329211 0.847809 -0.445586
v -0.517211 0.847809 -0.445586
v -0.517211 2.035809 -0.445586
v -0.989211 2.035809 -0.445586
v -0.989211 2.203809 -0.445586
v 0.142789 2.203809 -0.445586
v 0.142789 2.035809 -0.445586
v -0.329211 2.035809 -0.445586
v -0.287211 1.993809 -0.403586
v -0.329211 0.847809 -0.445586
v -0.287211 0.805809 -0.403586
v -0.517211 0.847809 -0.445586
v -0.559211 0.805809 -0.403586
v -0.517211 2.035809 -0.445586
v -0.559211 1.993809 -0.403586
v -0.989211 2.035809 -0.445586
v -1.031211 1.993809 -0.403586
v -0.989211 2.203809 -0.445586
v -1.031211 2.245809 -0.403586
v 0.142789 2.203809 -0.445586
v 0.184789 2.245809 -0.403586
v 0.142789 2.035809 -0.445586
v 0.184789 1.993809 -0.403586
v -0.287211 1.993809 -0.403586
v -0.287211 1.993809 -0.095586
v -0.287211 0.805809 -0.403586
v -0.287211 0.805809 -0.095586
v -0.559211 0.805809 -0.403586
v -0.559211 0.805809 -0.095586
v -0.559211 1.993809 -0.403586
v -0.559211 1.993809 -0.095586
v -1.031211 1.993809 -0.403586
v -1.031211 1.993809 -0.095586
v -1.031211 2.245809 -0.403586
v -1.031211 2.245809 -0.095586
v 0.184789 2.245809 -0.403586
v 0.184789 2.245809 -0.095586
v 0.184789 1.993809 -0.403586
v 0.184789 1.993809 -0.095586
v -0.287211 1.993809 -0.095586
v -0.329211 2.035809 -0.053586
v -0.287211 0.805809 -0.095586
v -0.329211 0.847809 -0.053586
v -0.559211 0.805809 -0.095586
v -0.517211 0.847809 -0.053586
v -0.559211 1.993809 -0.095586
v -0.517211 2.035809 -0.053586
v -1.031211 1.993809 -0.095586
v -0.989211 2.035809 -0.053586
v -1.031211 2.245809 -0.095586
v -0.989211 2.203809 -0.053586
v 0.184789 2.245809 -0.095586
v 0.142789 2.203809 -0.053586
v 0.184789 1.993809 -0.095586
v 0.142789 2.035809 -0.053586
vn 0.0000 -0.0000 1.0000
vn 0.0000 0.0000 -1.0000
vn 0.4082 -0.4082 -0.8165
vn -0.4082 -0.4082 -0.8165
vn -0.4082 0.4082 -0.8165
vn 0.4082 0.4082 -0.8165
vn 0.7071 -0.7071 0.0000
vn -0.7071 -0.7071 0.0000
vn -0.7071 0.7071 0.0000
vn 0.7071 0.7071 0.0000
vn 0.4082 -0.4082 0.8165
vn -0.4082 -0.4082 0.8165
vn -0.4082 0.4082 0.8165
vn 0.4082 0.4082 0.8165
usemtl None
s off
f 5//1 7//1 6//1
f 5//1 8//1 7//1
f 4//1 8//1 5//1
f 3//1 1//1 4//1
f 1//1 8//1 4//1
f 3//1 2//1 1//1
f 15//2 13//2 14//2
f 16//2 13//2 15//2
f 16//2 12//2 13//2
f 9//2 11//2 12//2
f 16//1 9//1 12//1
f 10//2 11//2 9//2
s 1
f 18//3 20//3 19//3 17//3
f 20//3 22//4 21//4 19//3
f 22//4 24//4 23//4 21//4
f 24//4 26//4 25//4 23//4
f 26//4 28//5 27//5 25//4
f 28//5 30//6 29//6 27//5
f 30//6 32//3 31//3 29//6
f 32//3 18//3 17//3 31//3
f 34//7 36//7 35//7 33//7
f 36//7 38//8 37//8 35//7
f 38//8 40//8 39//8 37//8
f 40//8 42//8 41//8 39//8
f 42//8 44//9 43//9 41//8
f 44//9 46//10 45//10 43//9
f 46//10 48//7 47//7 45//10
f 48//7 34//7 33//7 47//7
f 50//11 52//11 51//11 49//11
f 52//11 54//12 53//12 51//11
f 54//12 56//12 55//12 53//12
f 56//12 58//12 57//12 55//12
f 58//12 60//13 59//13 57//12
f 60//13 62//14 61//14 59//13
f 62//14 64//11 63//11 61//14
f 64//11 50//11 49//11 63//11
